:FULLY-SPECIFIED
:FORCE-ALL-JOINTS-BE-3DOF
:DEGREES
1020
root 0.249705 13.5863 -35.4297 12.3074 -28.1546 -17.6556
lfemur -70.125 36.1012 -4.15524
ltibia 82.478 -0 0
lfoot -13.028 -8.59296 -0.00142069
ltoes -5.93544 0 0
rfemur 10.3914 -8.71997 8.63278
rtibia 36.1958 -0 0
rfoot -22.6543 -26.189 -1.2075e-05
rtoes -31.4467 0 0
lowerback 10.1897 -0.847714 5.36418
upperback -1.86725 0.0767151 8.14647
thorax -7.76705 -0.0360061 5.69844
lowerneck -4.83772 8.32385 3.41141
upperneck 7.91517 10.964 -1.02234
head 3.6924 5.48867 -0.385589
lclavicle 0 0 0
lhumerus 83.1624 -8.75043 28.3395
lradius 94.1358 -0 0
lwrist 9.21611 0 0
lhand -35.7489 30.7598 0.00767986
lfingers 0 0 0
lthumb -8.86743 60.5527 0.00752677
rclavicle 0 0 0
rhumerus -77.5858 23.019 -95.1091
rradius 111.918 -0 0
rwrist -63.2568 0 0
rhand -10.2048 -25.099 -0.000225197
rfingers 0 0 0
rthumb 15.7865 -54.4752 -0.000208444
1021
root 0.2488 13.5855 -35.4273 12.307 -28.1582 -17.651
lfemur -70.1404 36.1209 -4.17089
ltibia 82.5231 -0 0
lfoot -13.0723 -8.57662 -0.00101757
ltoes -5.9817 0 0
rfemur 10.4131 -8.71402 8.61548
rtibia 36.1803 -0 0
rfoot -22.6524 -26.1922 -8.64876e-06
rtoes -31.4386 0 0
lowerback 10.1781 -0.84275 5.34743
upperback -1.87227 0.0801729 8.13999
thorax -7.76586 -0.0336315 5.69992
lowerneck -4.84653 8.32389 3.41062
upperneck 7.91985 10.9633 -1.01562
head 3.69519 5.48851 -0.382808
lclavicle 0 0 0
lhumerus 83.1832 -8.10946 28.4106
lradius 94.113 -0 0
lwrist 9.05298 0 0
lhand -35.7904 30.6657 0.00550062
lfingers 0 0 0
lthumb -8.90753 60.457 0.00539097
rclavicle 0 0 0
rhumerus -77.5917 23.029 -95.1149
rradius 111.91 -0 0
rwrist -63.263 0 0
rhand -10.2124 -25.0839 -0.000161297
rfingers 0 0 0
rthumb 15.7791 -54.4607 -0.000149298
1022
root 0.248032 13.5848 -35.4254 12.3066 -28.1612 -17.6472
lfemur -70.1533 36.1375 -4.18402
ltibia 82.5609 -0 0
lfoot -13.1095 -8.56292 -0.000669786
ltoes -6.02048 0 0
rfemur 10.4313 -8.70904 8.60097
rtibia 36.1673 -0 0
rfoot -22.6509 -26.1949 -5.69281e-06
rtoes -31.4317 0 0
lowerback 10.1684 -0.83859 5.33338
upperback -1.87649 0.083072 8.13456
thorax -7.76486 -0.0316403 5.70116
lowerneck -4.85391 8.32393 3.40996
upperneck 7.92377 10.9628 -1.00998
head 3.69753 5.48838 -0.380476
lclavicle 0 0 0
lhumerus 83.2013 -7.57199 28.4703
lradius 94.0939 -0 0
lwrist 8.91619 0 0
lhand -35.8253 30.5867 0.00362058
lfingers 0 0 0
lthumb -8.94116 60.3769 0.00354841
rclavicle 0 0 0
rhumerus -77.5966 23.0373 -95.1198
rradius 111.903 -0 0
rwrist -63.2681 0 0
rhand -10.2188 -25.0712 -0.00010617
rfingers 0 0 0
rthumb 15.773 -54.4485 -9.82717e-05
1023
root 0.247411 13.5842 -35.4239 12.3064 -28.1636 -17.6441
lfemur -70.1635 36.1507 -4.19449
ltibia 82.591 -0 0
lfoot -13.1391 -8.55201 -0.000386369
ltoes -6.05138 0 0
rfemur 10.4458 -8.70506 8.58941
rtibia 36.1569 -0 0
rfoot -22.6496 -26.1971 -3.28394e-06
rtoes -31.4263 0 0
lowerback 10.1606 -0.835278 5.32219
upperback -1.87985 0.0853812 8.13023
thorax -7.76407 -0.0300541 5.70215
lowerneck -4.85979 8.32395 3.40943
upperneck 7.9269 10.9623 -1.00549
head 3.69939 5.48827 -0.378619
lclavicle 0 0 0
lhumerus 83.2161 -7.14384 28.5179
lradius 94.0787 -0 0
lwrist 8.80722 0 0
lhand -35.853 30.5238 0.00208853
lfingers 0 0 0
lthumb -8.96795 60.313 0.0020469
rclavicle 0 0 0
rhumerus -77.6005 23.044 -95.1237
rradius 111.897 -0 0
rwrist -63.2723 0 0
rhand -10.2238 -25.0611 -6.12446e-05
rfingers 0 0 0
rthumb 15.7681 -54.4388 -5.66886e-05
1024
root 0.246953 13.5838 -35.4228 12.3062 -28.1654 -17.6418
lfemur -70.171 36.1604 -4.20214
ltibia 82.6131 -0 0
lfoot -13.1608 -8.54403 -0.000175588
ltoes -6.07396 0 0
rfemur 10.4564 -8.70215 8.58096
rtibia 36.1493 -0 0
rfoot -22.6487 -26.1987 -1.49241e-06
rtoes -31.4223 0 0
lowerback 10.155 -0.832858 5.31401
upperback -1.8823 0.0870693 8.12706
thorax -7.76349 -0.0288943 5.70287
lowerneck -4.86409 8.32397 3.40904
upperneck 7.92918 10.962 -1.00221
head 3.70075 5.48819 -0.377261
lclavicle 0 0 0
lhumerus 83.2272 -6.83082 28.5528
lradius 94.0676 -0 0
lwrist 8.72754 0 0
lhand -35.8733 30.4778 0.000949139
lfingers 0 0 0
lthumb -8.98753 60.2663 0.000930219
rclavicle 0 0 0
rhumerus -77.6034 23.0489 -95.1266
rradius 111.893 -0 0
rwrist -63.2753 0 0
rhand -10.2275 -25.0538 -2.7833e-05
rfingers 0 0 0
rthumb 15.7645 -54.4317 -2.57626e-05
1025
root 0.246668 13.5836 -35.4221 12.306 -28.1664 -17.6405
lfemur -70.1756 36.1663 -4.20684
ltibia 82.6266 -0 0
lfoot -13.1741 -8.53914 -4.47518e-05
ltoes -6.08783 0 0
rfemur 10.4629 -8.70037 8.57577
rtibia 36.1447 -0 0
rfoot -22.6481 -26.1997 -3.80368e-07
rtoes -31.4198 0 0
lowerback 10.1515 -0.831373 5.30899
upperback -1.88381 0.0881052 8.12512
thorax -7.76313 -0.0281827 5.70331
lowerneck -4.86673 8.32399 3.4088
upperneck 7.93058 10.9618 -1.0002
head 3.70159 5.48815 -0.376427
lclavicle 0 0 0
lhumerus 83.234 -6.63874 28.5742
lradius 94.0607 -0 0
lwrist 8.67866 0 0
lhand -35.8858 30.4496 0.000241905
lfingers 0 0 0
lthumb -8.99954 60.2376 0.000237082
rclavicle 0 0 0
rhumerus -77.6052 23.0519 -95.1283
rradius 111.891 -0 0
rwrist -63.2772 0 0
rhand -10.2298 -25.0492 -7.09377e-06
rfingers 0 0 0
rthumb 15.7623 -54.4274 -6.56607e-06
1026
root 0.241835 13.5333 -35.339 12.306 -28.1668 -17.64
lfemur -70.1772 36.1683 -4.20844
ltibia 82.6312 0 0
lfoot -13.1786 -8.53747 0
ltoes -6.09254 0 0
rfemur 10.4651 -8.69976 8.57401
rtibia 36.1431 0 0
rfoot -22.6479 -26.2 0
rtoes -31.419 0 0
lowerback 10.1503 -0.830868 5.30728
upperback -1.88432 0.0884574 8.12446
thorax -7.76301 -0.0279407 5.70346
lowerneck -4.86763 8.32399 3.40872
upperneck 7.93106 10.9617 -0.999513
head 3.70187 5.48813 -0.376144
lclavicle -5.7573e-14 1.55052e-14 0
lhumerus 83.2364 -6.57342 28.5815
lradius 94.0584 0 0
lwrist 8.66203 0 0
lhand -35.89 30.44 0
lfingers 7.12502 0 0
lthumb -9.00363 60.2279 0
rclavicle -5.7573e-14 1.55052e-14 0
rhumerus -77.6058 23.0529 -95.1289
rradius 111.89 0 0
rwrist -63.2778 0 0
rhand -10.2306 -25.0477 0
rfingers 7.12502 0 0
rthumb 15.7616 -54.4259 0
1027
root 0.241183 13.5293 -35.3343 12.3155 -28.1734 -17.6253
lfemur -70.191 36.1462 -4.2138
ltibia 82.6645 -0 0
lfoot -13.2166 -8.38956 -0.00363199
ltoes -6.31529 0 0
rfemur 10.4523 -8.70289 8.5499
rtibia 36.1487 -0 0
rfoot -22.623 -26.2223 -0.000356557
rtoes -31.4579 0 0
lowerback 10.1685 -0.822947 5.29395
upperback -1.87969 0.0979505 8.10838
thorax -7.76879 -0.0229236 5.69197
lowerneck -4.87475 8.31999 3.40237
upperneck 7.91242 10.956 -0.995221
head 3.69587 5.48529 -0.37423
lclavicle 0 0 0
lhumerus 83.2454 -6.45203 28.6781
lradius 93.951 -0 0
lwrist 8.70512 0 0
lhand -35.878 30.452 9.25754e-05
lfingers 0 0 0
lthumb -8.99204 60.2403 9.28672e-05
rclavicle 0 0 0
rhumerus -77.5979 23.0458 -95.1341
rradius 111.878 -0 0
rwrist -63.316 0 0
rhand -10.221 -25.0684 -0.000127986
rfingers 0 0 0
rthumb 15.7709 -54.4458 -0.000118768
